<?xml version="1.0" standalone="no"?>
<!DOCTYPE svg PUBLIC "-//W3C//DTD SVG 20010904//EN"
 "http://www.w3.org/TR/2001/REC-SVG-20010904/DTD/svg10.dtd">
<svg version="1.0" xmlns="http://www.w3.org/2000/svg"
 width="882.000000pt" height="975.000000pt" viewBox="0 0 882.000000 975.000000"
 preserveAspectRatio="xMidYMid meet">

<g transform="translate(0.000000,975.000000) scale(0.100000,-0.100000)"
fill="#000000" stroke="none">
<path d="M5688 9743 c17 -2 47 -2 65 0 17 2 3 4 -33 4 -36 0 -50 -2 -32 -4z"/>
<path d="M5968 9743 c6 -2 18 -2 25 0 6 3 1 5 -13 5 -14 0 -19 -2 -12 -5z"/>
<path d="M6023 9743 c9 -2 23 -2 30 0 6 3 -1 5 -18 5 -16 0 -22 -2 -12 -5z"/>
<path d="M6318 9743 c133 -2 351 -2 485 0 133 1 24 2 -243 2 -267 0 -376 -1
-242 -2z"/>
<path d="M7085 9741 c17 -4 253 -8 525 -10 272 -1 506 -3 520 -4 80 -3 190 4
190 13 0 7 -217 10 -632 9 -348 -1 -619 -4 -603 -8z"/>
<path d="M8350 9740 c0 -5 20 -10 45 -10 25 0 45 5 45 10 0 6 -20 10 -45 10
-25 0 -45 -4 -45 -10z"/>
<path d="M8485 9741 c14 -13 206 -19 202 -6 -2 6 -50 11 -108 13 -66 2 -100
-1 -94 -7z"/>
<path d="M4480 9451 c-14 -4 -40 -15 -57 -24 -38 -20 -81 -21 -185 -5 -72 11
-82 10 -125 -9 -49 -22 -188 -63 -210 -63 -7 0 -37 -11 -67 -25 -30 -14 -64
-25 -75 -25 -10 0 -41 -9 -68 -21 -26 -12 -92 -36 -146 -55 -54 -19 -147 -59
-207 -89 -60 -30 -111 -55 -115 -55 -3 0 -36 -21 -73 -47 -109 -78 -314 -276
-367 -354 -16 -24 -44 -62 -61 -84 -17 -22 -44 -62 -60 -90 -15 -27 -31 -52
-34 -55 -11 -10 -76 -96 -92 -122 -82 -129 -218 -462 -218 -535 0 -15 -7 -59
-16 -98 -9 -42 -17 -143 -19 -250 -3 -99 -10 -225 -16 -280 -7 -55 -11 -117
-11 -139 1 -21 -8 -57 -19 -78 -19 -38 -22 -40 -55 -34 -27 6 -33 4 -28 -8 3
-8 1 -24 -5 -35 -9 -16 -18 -19 -40 -15 -20 4 -30 1 -34 -10 -5 -14 3 -16 59
-16 60 0 65 -2 74 -26 20 -51 12 -103 -22 -147 -18 -23 -42 -48 -52 -56 -10
-8 -26 -22 -35 -33 -8 -10 -23 -18 -33 -18 -10 0 -18 -4 -18 -10 0 -5 7 -10
15 -10 16 0 18 -14 6 -45 -6 -14 -2 -29 13 -50 13 -19 21 -47 22 -80 2 -62 42
-154 91 -208 22 -25 33 -46 30 -57 -5 -21 30 -56 85 -84 51 -26 83 -96 123
-266 33 -142 52 -208 105 -370 35 -106 61 -205 64 -245 0 -11 13 -27 27 -36
15 -10 29 -30 32 -48 6 -29 27 -45 27 -20 0 5 4 7 10 4 5 -3 7 0 4 8 -3 9 6
19 26 27 22 9 30 18 27 30 -2 9 0 24 5 33 5 11 2 36 -12 74 -11 31 -20 68 -20
81 0 33 -31 152 -40 152 -7 0 -24 51 -34 100 -6 29 -59 180 -68 196 -4 6 -17
37 -30 70 -19 51 -22 76 -21 189 2 162 29 350 55 388 11 15 28 27 37 27 10 0
24 6 30 14 24 29 -23 85 -72 86 -51 0 -67 16 -67 65 0 41 3 47 40 70 39 25 49
37 54 67 1 7 8 31 14 53 7 22 18 58 23 80 6 22 17 51 24 65 7 14 22 54 34 89
12 36 33 78 47 94 13 15 24 35 24 42 0 7 6 26 14 42 8 15 24 59 36 98 12 38
36 101 55 140 18 38 38 88 45 110 32 101 77 193 126 257 24 31 44 61 44 66 0
5 22 29 49 53 67 60 72 64 114 84 20 9 37 21 37 25 0 4 17 15 38 24 20 9 44
20 52 25 8 4 44 23 80 41 36 18 70 38 75 44 12 13 36 28 90 57 22 12 51 30 65
39 14 10 43 21 65 25 22 4 49 12 60 18 11 6 27 12 35 13 8 2 38 8 65 14 28 6
64 13 80 15 79 12 151 28 159 36 6 5 18 9 28 9 9 0 21 6 25 13 8 12 31 24 128
68 51 23 61 30 96 62 10 9 27 17 37 17 10 0 27 7 38 15 10 8 31 15 46 15 15 0
30 5 33 10 3 6 32 10 64 10 37 0 63 5 70 14 7 8 43 15 102 18 50 3 96 11 102
17 14 14 57 14 57 0 0 -6 6 -9 14 -6 18 7 72 -26 86 -52 6 -12 19 -21 29 -21
29 0 80 -60 96 -113 8 -26 26 -62 40 -78 14 -17 25 -39 25 -50 0 -11 11 -44
24 -72 14 -29 28 -73 31 -99 3 -26 10 -50 16 -53 5 -4 9 -22 9 -41 0 -33 3
-42 28 -91 7 -13 12 -30 12 -38 0 -9 7 -27 16 -40 9 -13 13 -28 10 -33 -3 -5
6 -24 19 -42 13 -18 22 -37 19 -41 -2 -4 7 -19 21 -33 14 -14 25 -30 25 -37 0
-6 23 -40 50 -75 28 -35 50 -72 50 -83 0 -22 25 -51 45 -51 16 0 105 -91 105
-107 0 -7 5 -13 10 -13 6 0 10 -5 10 -10 0 -6 11 -28 25 -49 13 -22 27 -52 31
-68 4 -15 10 -30 13 -33 11 -9 51 -89 51 -101 0 -7 8 -22 18 -33 10 -12 24
-41 31 -66 7 -25 21 -60 32 -78 10 -18 19 -42 19 -52 0 -11 9 -24 20 -30 11
-6 20 -19 20 -29 0 -10 11 -35 25 -55 13 -20 22 -36 18 -36 -3 0 -1 -6 4 -12
6 -7 15 -35 22 -61 15 -61 36 -94 72 -113 22 -11 29 -22 29 -44 0 -25 -7 -33
-35 -47 -39 -19 -41 -27 -21 -69 33 -68 40 -214 26 -536 -1 -10 -6 -18 -12
-18 -5 0 -8 -6 -5 -14 3 -7 1 -29 -3 -47 -49 -185 -58 -206 -104 -254 -24 -24
-32 -41 -29 -57 3 -17 -4 -29 -26 -46 -17 -12 -31 -31 -31 -42 0 -11 -4 -20
-9 -20 -5 0 -14 -13 -19 -30 -6 -16 -20 -37 -31 -47 -12 -9 -24 -32 -27 -50
-3 -17 -15 -39 -25 -49 -10 -9 -19 -25 -19 -36 0 -10 -4 -26 -9 -36 -11 -20
-37 -111 -46 -162 -7 -32 -46 -80 -67 -80 -4 0 -8 -28 -8 -62 0 -43 -3 -58
-10 -48 -7 12 -12 11 -32 -5 -38 -33 -68 -69 -68 -82 0 -7 -3 -13 -7 -13 -5 0
-8 -25 -8 -56 0 -51 -3 -58 -35 -87 -19 -17 -48 -47 -63 -66 -16 -20 -34 -36
-40 -36 -7 0 -17 -16 -23 -35 -6 -19 -18 -36 -27 -38 -15 -3 -40 -52 -40 -80
0 -8 -7 -23 -16 -32 -27 -29 -45 -55 -65 -93 -11 -20 -23 -37 -28 -37 -5 0
-31 -23 -59 -50 -27 -28 -55 -50 -62 -50 -7 0 -20 -8 -29 -17 -27 -29 -46 -43
-59 -43 -6 0 -20 -11 -31 -25 -11 -14 -24 -25 -29 -25 -6 0 -22 -11 -37 -25
-48 -45 -164 -95 -235 -100 -28 -3 -81 -9 -117 -15 -104 -16 -581 -9 -650 10
-25 6 -60 14 -78 17 -18 3 -35 9 -38 14 -3 5 -14 9 -25 9 -31 0 -238 125 -294
177 -27 26 -75 64 -105 84 -60 41 -183 157 -244 232 -21 26 -45 47 -52 47 -8
0 -19 10 -25 23 -6 12 -23 29 -40 36 -16 7 -27 16 -24 21 3 4 -5 10 -16 13
-16 4 -19 10 -14 27 8 26 -12 24 -29 -3 -7 -11 -6 -21 6 -34 26 -31 37 -102
31 -202 -5 -70 -3 -92 6 -87 16 10 51 -3 51 -20 0 -17 12 -18 27 -3 8 8 13 8
17 0 4 -6 0 -11 -8 -11 -28 0 -17 -24 23 -52 22 -16 41 -28 44 -28 3 0 19 -14
37 -30 18 -17 47 -37 65 -46 29 -14 66 -55 101 -116 16 -26 111 -118 124 -118
5 0 10 -6 10 -12 1 -15 56 -78 69 -78 5 0 25 -18 45 -40 20 -22 39 -40 44 -40
4 0 13 -9 20 -20 7 -11 21 -20 32 -20 10 0 32 -5 47 -11 15 -6 39 -16 53 -22
14 -5 41 -18 60 -27 61 -31 156 -60 206 -65 64 -5 160 -22 173 -29 5 -4 76
-18 158 -31 132 -23 150 -28 170 -52 17 -20 31 -26 64 -27 33 -1 46 -6 54 -22
16 -33 48 -61 53 -46 2 6 17 12 33 12 16 0 29 5 29 10 0 6 7 10 14 10 8 0 36
11 62 25 26 14 57 25 70 25 13 0 29 7 36 15 32 39 55 58 85 71 18 8 37 22 42
31 6 10 11 13 11 7 0 -6 20 -8 56 -4 47 5 60 3 89 -17 19 -13 41 -23 49 -23 9
0 16 -7 16 -15 0 -8 9 -15 20 -15 11 0 20 -4 20 -10 0 -5 13 -21 29 -35 22
-21 29 -37 34 -81 4 -36 12 -61 25 -72 21 -19 58 -108 54 -132 -3 -13 -2 -13
7 0 9 13 10 13 15 0 13 -41 12 -69 -2 -75 -8 -3 -12 -12 -8 -21 4 -11 -1 -22
-14 -31 -27 -19 -16 -37 13 -22 12 7 26 17 30 23 6 7 7 6 5 -3 -6 -22 72 -61
96 -49 14 8 17 17 13 44 -6 38 5 43 41 18 30 -21 28 -47 -8 -87 -16 -19 -34
-46 -40 -61 -7 -20 -15 -26 -26 -22 -9 3 -22 6 -29 6 -8 0 -20 12 -27 28 -7
15 -27 33 -45 41 -17 8 -36 25 -42 38 -9 19 -16 23 -34 17 -30 -9 -34 -14 -18
-23 9 -6 5 -10 -16 -15 -26 -7 -163 -137 -163 -155 0 -4 -11 -14 -25 -21 -13
-7 -22 -17 -19 -22 3 -4 -5 -12 -18 -17 -13 -5 -36 -24 -50 -43 -14 -18 -38
-46 -54 -61 -15 -16 -29 -34 -30 -41 -1 -7 -13 -30 -26 -52 -33 -52 -39 -83
-27 -129 8 -28 8 -44 -2 -61 -13 -25 -2 -102 29 -199 18 -55 17 -157 -1 -187
-9 -13 -8 -26 1 -50 8 -21 9 -34 2 -36 -5 -2 -10 -9 -10 -16 0 -8 -10 -26 -22
-42 -13 -16 -28 -42 -34 -59 -7 -16 -24 -61 -38 -99 -14 -38 -26 -77 -26 -86
0 -10 -6 -20 -13 -23 -8 -3 -31 -38 -52 -79 -47 -90 -110 -200 -143 -250 -16
-25 -23 -46 -20 -63 4 -18 0 -29 -14 -36 -25 -13 -58 -68 -58 -95 0 -36 55
-38 94 -3 29 26 30 29 19 60 -10 24 -10 36 -1 46 27 33 81 -10 94 -74 6 -32 6
-33 -29 -33 -39 0 -48 -9 -53 -51 -2 -17 -19 -43 -41 -64 -33 -31 -43 -35 -78
-32 -30 3 -48 -2 -72 -20 -18 -13 -33 -30 -33 -37 0 -7 -14 -22 -30 -34 -33
-25 -135 -219 -146 -279 -4 -19 -13 -37 -20 -40 -8 -3 -14 -10 -14 -16 0 -5
-11 -33 -24 -61 -42 -89 -76 -168 -76 -177 0 -5 996 -9 2310 -9 l2310 0 0 190
c0 182 -1 190 -20 190 -10 0 -24 8 -29 19 -6 10 -26 22 -46 25 -37 7 -41 15
-25 47 11 20 45 26 55 9 3 -5 19 -10 36 -10 28 0 29 1 29 50 0 28 -6 60 -12
71 -10 17 -10 23 0 26 9 4 12 162 12 744 l0 740 -27 24 c-16 13 -33 25 -39 25
-7 0 -14 6 -17 13 -2 7 -34 23 -71 36 -36 13 -64 27 -61 31 7 11 -82 60 -107
60 -10 0 -36 9 -58 20 -22 11 -48 20 -60 20 -11 0 -39 12 -63 27 -23 15 -78
39 -122 54 -43 16 -87 35 -97 43 -21 18 -120 66 -137 66 -7 0 -27 11 -44 24
-18 13 -54 34 -82 47 -27 13 -65 34 -84 47 -43 28 -53 28 -89 -3 -21 -18 -42
-25 -72 -25 -51 0 -70 18 -81 74 -10 53 -58 136 -79 136 -21 0 -132 39 -147
52 -8 6 -17 2 -28 -16 -23 -35 -37 -33 -59 9 -11 19 -23 35 -28 35 -4 0 -18
12 -31 26 -24 28 -80 67 -140 99 -21 11 -53 34 -71 50 -57 52 -174 105 -256
117 -41 6 -79 14 -84 19 -6 5 -33 9 -60 9 -42 0 -72 10 -163 56 -140 69 -165
92 -187 168 -24 81 -49 126 -170 310 -44 66 -91 131 -107 145 -15 15 -53 76
-85 136 -31 61 -68 123 -81 138 -12 16 -23 34 -23 42 0 7 -7 18 -15 25 -8 7
-17 27 -21 46 -5 26 -1 40 17 62 40 48 129 196 129 212 0 5 6 11 13 13 9 4 9
7 0 14 -9 6 -4 18 17 43 17 19 30 38 30 42 0 3 18 45 41 93 22 48 38 92 36 98
-2 7 -10 -1 -19 -16 l-14 -29 -2 55 -1 54 35 -1 c35 -1 36 0 61 69 14 39 28
83 31 98 4 27 7 28 38 23 19 -3 51 -9 71 -12 l37 -7 -25 24 c-53 52 -61 93
-28 140 17 25 23 27 41 18 11 -6 20 -9 21 -7 1 2 15 18 32 36 25 28 27 35 15
43 -13 9 -13 11 1 21 14 10 12 14 -12 37 -20 19 -25 31 -19 41 5 8 7 25 3 38
-3 12 -1 28 5 35 5 6 13 32 17 57 4 25 11 52 16 61 4 9 11 67 14 130 6 105 8
116 31 137 27 24 44 28 44 11 0 -17 51 -1 77 23 26 24 93 134 93 152 0 7 9 31
20 54 11 22 20 45 20 51 0 5 4 11 8 13 35 15 68 117 42 133 -5 3 -10 23 -10
44 0 54 -35 127 -68 143 -26 13 -27 15 -27 103 0 58 -5 99 -14 114 -10 19 -12
42 -5 100 19 173 7 614 -20 718 -9 32 -24 119 -35 193 -10 74 -26 151 -34 170
-9 19 -28 69 -43 110 -39 108 -199 427 -263 525 -43 66 -122 152 -186 205 -17
14 -49 50 -72 80 -39 54 -106 120 -121 120 -4 0 -27 18 -52 40 -25 22 -62 45
-83 51 -54 14 -106 46 -159 99 -60 59 -102 72 -246 75 -106 2 -113 4 -136 28
-13 14 -36 32 -52 40 -16 8 -39 28 -51 45 -23 32 -42 38 -158 51 -38 5 -92 18
-118 30 -55 24 -139 34 -177 22z m1200 -1931 c0 -5 -4 -10 -10 -10 -5 0 -10 5
-10 10 0 6 5 10 10 10 6 0 10 -4 10 -10z m717 -1515 c3 -9 -3 -25 -13 -36 -15
-17 -19 -18 -26 -5 -10 17 6 56 23 56 5 0 12 -7 16 -15z m-197 -655 c0 -5 -2
-10 -4 -10 -3 0 -8 5 -11 10 -3 6 -1 10 4 10 6 0 11 -4 11 -10z m-3510 -295
c0 -14 -4 -25 -9 -25 -4 0 -6 11 -3 25 2 14 6 25 8 25 2 0 4 -11 4 -25z m3230
-255 c0 -5 -5 -10 -11 -10 -5 0 -7 5 -4 10 3 6 8 10 11 10 2 0 4 -4 4 -10z
m-2898 -619 c-3 -7 1 -17 9 -22 11 -7 11 -9 -3 -9 -15 0 -18 8 -17 43 0 31 2
37 8 22 5 -11 6 -26 3 -34z m2605 -1213 c-3 -8 -6 -5 -6 6 -1 11 2 17 5 13 3
-3 4 -12 1 -19z m-37 -22 c0 -3 -4 -8 -10 -11 -5 -3 -10 -1 -10 4 0 6 5 11 10
11 6 0 10 -2 10 -4z m894 -162 c29 -30 32 -45 14 -73 -9 -15 -9 -28 0 -59 16
-51 6 -120 -19 -135 -15 -9 -19 -24 -19 -63 0 -34 -5 -56 -15 -64 -11 -10 -13
-25 -8 -67 l6 -55 -50 7 c-37 5 -52 3 -61 -8 -8 -9 -31 -15 -62 -15 -43 0 -50
3 -60 27 -6 15 -12 56 -13 91 -2 36 -8 75 -15 86 -13 25 0 48 33 58 39 11 48
-6 37 -73 -7 -48 -6 -65 5 -81 27 -39 75 -15 113 54 13 24 11 28 -15 56 -16
17 -37 30 -47 30 -26 0 -33 26 -14 55 20 31 20 49 0 79 -14 23 -14 26 7 45 20
18 21 23 9 50 -7 17 -10 37 -6 46 7 19 46 20 71 2 17 -14 17 -15 -1 -45 -32
-56 7 -118 60 -94 22 10 26 18 26 57 0 39 -4 47 -25 57 -27 12 -32 27 -13 46
18 18 33 15 62 -14z m631 -350 c31 -20 32 -31 4 -39 -17 -6 -20 -12 -15 -37 5
-26 3 -29 -17 -26 -20 3 -22 8 -18 53 5 72 7 74 46 49z m121 -18 c3 -13 17
-33 30 -45 31 -27 31 -41 0 -41 -24 0 -36 -16 -36 -51 0 -25 -21 -24 -54 2
-31 25 -32 33 -5 62 14 15 19 30 15 48 -9 46 38 70 50 25z m-1670 -421 c5 -19
13 -25 34 -25 40 0 80 -17 80 -33 0 -8 -9 -22 -20 -32 -16 -14 -19 -26 -14
-51 6 -31 3 -34 -32 -51 -26 -12 -40 -26 -42 -40 -4 -26 -37 -53 -64 -53 -10
0 -37 12 -59 27 -37 24 -40 29 -34 60 5 29 3 35 -20 45 -34 15 -32 33 11 74
19 19 40 48 45 64 10 28 18 32 91 38 11 1 20 -7 24 -23z m2710 -156 c14 -16
27 -20 51 -16 55 9 64 -7 54 -97 -11 -92 -19 -105 -58 -86 -16 8 -47 12 -71
11 -52 -4 -82 19 -82 61 0 16 -7 45 -15 65 -8 19 -15 37 -15 39 0 2 17 4 39 4
30 0 40 4 44 20 7 26 29 25 53 -1z m-646 -15 c0 -8 -4 -14 -9 -14 -11 0 -22
26 -14 34 9 9 23 -3 23 -20z m-2300 -83 c0 -6 -4 -13 -10 -16 -5 -3 -10 1 -10
9 0 9 5 16 10 16 6 0 10 -4 10 -9z m3193 -244 c-3 -5 -10 -4 -15 1 -6 6 -7 16
-3 22 6 9 9 9 16 -1 4 -7 5 -17 2 -22z m-2384 -46 c8 -5 19 -24 25 -43 9 -27
17 -34 43 -36 35 -3 73 -41 73 -73 0 -14 -7 -19 -29 -19 -27 0 -28 -1 -21 -37
4 -21 8 -42 10 -48 6 -23 -2 -33 -40 -45 -34 -11 -45 -11 -77 3 -21 9 -48 19
-60 22 -16 4 -26 18 -33 46 -11 38 -12 39 -56 39 -54 0 -63 15 -40 64 9 19 16
39 16 44 0 17 35 23 64 13 27 -11 33 -25 16 -36 -18 -11 -11 -53 12 -69 36
-25 83 -20 107 11 19 23 20 29 7 47 -7 12 -31 26 -52 32 -31 8 -40 16 -42 36
-5 43 40 72 77 49z m1911 -303 c11 -12 20 -27 20 -34 0 -20 30 -44 55 -44 31
0 105 -83 105 -119 0 -34 33 -87 59 -96 27 -8 51 -55 51 -99 0 -48 -15 -53
-52 -17 -40 39 -71 39 -107 1 -26 -29 -28 -30 -43 -13 -9 10 -23 32 -32 50 -9
18 -26 37 -37 43 -33 18 -59 43 -59 58 0 14 -4 16 -67 32 -45 11 -59 33 -49
76 4 15 14 24 26 24 10 0 22 5 25 10 3 6 15 10 26 10 13 0 19 -7 19 -22 0 -25
35 -88 48 -88 4 0 18 7 30 16 16 11 22 25 22 53 0 33 -4 40 -35 57 -27 14 -37
16 -47 6 -21 -21 -58 -14 -68 14 -17 45 -12 61 28 82 48 27 57 27 82 0z
m-1547 -265 c14 -17 24 -21 47 -16 26 5 31 2 43 -26 8 -18 28 -39 47 -49 50
-25 58 -62 25 -106 -31 -40 -50 -50 -75 -36 -21 11 -50 3 -50 -14 0 -7 -6 -21
-14 -32 -14 -19 -15 -18 -41 6 -15 14 -31 35 -36 48 -5 12 -20 27 -34 32 -23
9 -25 13 -21 62 3 41 8 53 25 60 15 5 21 16 21 38 0 40 17 73 33 63 7 -4 20
-17 30 -30z m-928 6 c11 -17 -1 -21 -15 -4 -8 9 -8 15 -2 15 6 0 14 -5 17 -11z
m1540 -90 c11 0 34 3 51 6 55 12 72 -46 18 -59 -17 -4 -34 0 -52 12 -82 57
-123 7 -58 -73 l24 -30 37 18 38 18 -7 -32 c-3 -17 -6 -38 -6 -45 0 -22 -25
-16 -53 11 -22 22 -28 24 -50 14 -21 -9 -29 -9 -40 3 -25 25 -30 57 -12 85 14
20 15 30 6 50 -16 35 -15 36 37 29 26 -4 56 -6 67 -7z m100 -117 c-3 -3 -11 0
-18 7 -9 10 -8 11 6 5 10 -3 15 -9 12 -12z m995 -16 c19 -19 51 -38 70 -43 32
-8 35 -12 38 -51 2 -23 -1 -42 -6 -42 -15 0 -69 30 -82 45 -7 8 -26 15 -43 15
-36 0 -56 24 -57 66 0 56 28 59 80 10z m-2430 -315 c0 -12 -9 -20 -25 -23 -26
-6 -43 6 -25 17 5 3 10 15 10 26 0 17 3 18 20 9 11 -6 20 -19 20 -29z m2685
-35 c15 -22 15 -29 2 -67 -16 -48 -31 -60 -40 -32 -3 10 -13 30 -23 44 -24 36
-12 79 21 79 15 0 31 -9 40 -24z m-2843 -8 c2 -17 11 -24 31 -26 21 -3 27 -8
23 -19 -3 -8 -6 -18 -6 -23 0 -4 -7 -11 -16 -14 -22 -9 -64 33 -64 65 0 42 26
56 32 17z m2738 -163 c-14 -16 -40 -20 -40 -6 0 10 17 19 39 20 11 1 11 -2 1
-14z"/>
<path d="M6357 2583 c-15 -14 -6 -44 16 -52 30 -12 40 0 28 32 -10 26 -30 35
-44 20z"/>
<path d="M5471 1914 c-12 -15 -21 -34 -21 -44 0 -33 59 -66 74 -41 9 14 55 19
60 7 2 -6 5 -2 5 10 1 24 -60 94 -83 94 -8 0 -24 -12 -35 -26z"/>
<path d="M8238 1778 c-9 -22 37 -68 68 -68 24 0 26 2 20 32 -8 39 -6 38 -48
44 -25 4 -37 2 -40 -8z"/>
<path d="M8120 846 c0 -30 13 -40 40 -31 13 4 20 15 20 31 0 20 -5 24 -30 24
-25 0 -30 -4 -30 -24z"/>
<path d="M6468 786 c-27 -20 -22 -59 10 -90 l29 -27 41 27 c44 29 49 39 29 65
-28 37 -79 49 -109 25z"/>
<path d="M5285 7039 c-22 -5 -80 -16 -130 -24 -171 -30 -190 -34 -243 -52 -38
-14 -58 -27 -72 -51 -24 -39 -26 -75 -5 -92 9 -7 14 -19 11 -26 -3 -7 4 -16
16 -20 19 -6 18 -8 -17 -42 -37 -36 -57 -70 -48 -84 9 -17 38 -6 119 45 46 28
92 57 102 62 10 6 40 31 66 58 27 26 54 47 62 47 8 0 14 4 14 9 0 4 26 18 58
31 43 16 87 23 178 27 111 5 127 4 180 -17 33 -12 68 -26 79 -30 11 -3 41 -17
67 -29 26 -13 52 -20 58 -16 6 4 17 1 25 -5 12 -10 16 -9 21 4 9 24 -37 112
-71 132 -16 9 -33 23 -37 29 -4 7 -28 18 -53 25 -25 7 -48 17 -51 21 -7 11
-276 10 -329 -2z"/>
<path d="M3052 6930 c-35 -17 -74 -33 -87 -36 -30 -7 -75 -83 -85 -141 -6 -38
-5 -43 12 -43 10 0 18 4 18 10 0 5 12 13 28 16 15 4 75 29 133 56 101 46 110
48 190 47 46 0 107 -5 134 -10 28 -6 67 -13 88 -16 20 -3 40 -9 43 -14 3 -5
24 -9 48 -9 32 0 48 -6 64 -23 l22 -24 -25 -11 c-51 -23 -20 -48 65 -52 97 -5
100 -4 100 33 0 21 8 41 20 52 11 10 20 26 20 35 0 9 5 21 11 27 22 22 1 62
-44 85 -41 21 -50 22 -318 19 -237 -2 -281 0 -307 13 -42 22 -57 20 -130 -14z"/>
<path d="M5396 6691 c-3 -5 14 -14 39 -20 54 -14 78 -14 70 -1 -3 6 -19 10
-35 10 -16 0 -32 5 -35 10 -8 12 -32 13 -39 1z"/>
<path d="M3230 6592 c-90 -44 -180 -110 -210 -152 -12 -16 -30 -30 -40 -30
-10 0 -22 -5 -26 -12 -5 -8 -10 -7 -18 4 -6 8 -15 16 -21 18 -31 8 -48 33 -56
81 -5 28 -10 54 -13 56 -2 2 -14 -2 -26 -9 -19 -11 -21 -19 -16 -60 4 -41 2
-48 -20 -62 -21 -15 -24 -23 -24 -84 0 -86 17 -189 35 -215 18 -26 21 -17 31
88 5 44 9 85 10 90 1 6 2 18 3 28 1 13 10 17 35 17 19 0 38 5 41 10 9 15 69 6
107 -17 19 -11 52 -23 73 -27 21 -4 44 -14 50 -23 7 -9 34 -17 71 -20 48 -4
62 -2 73 11 12 14 11 20 -6 39 -38 41 -42 57 -26 104 11 32 27 52 61 75 59 41
75 32 82 -48 3 -40 14 -74 33 -106 25 -42 33 -48 73 -54 49 -7 89 8 137 51 23
20 30 38 37 87 5 34 7 65 4 69 -2 4 7 19 22 32 l26 24 -34 14 c-18 7 -37 18
-43 25 -17 20 -162 34 -209 20 -49 -15 -98 -14 -104 2 -6 20 -33 13 -112 -26z"/>
<path d="M5062 6584 c-19 -13 -22 -24 -22 -83 0 -101 20 -150 76 -184 65 -39
99 -45 113 -18 7 12 18 21 25 21 7 0 21 9 30 19 14 15 18 40 19 113 l2 93 65
-4 c36 -2 70 -7 76 -12 6 -5 17 -41 24 -80 11 -55 11 -75 2 -90 -7 -10 -12
-26 -12 -34 0 -8 -4 -15 -10 -15 -5 0 -10 -5 -10 -11 0 -7 -8 -18 -17 -25 -17
-12 -17 -13 0 -19 19 -8 77 16 96 39 6 7 33 21 59 31 26 10 50 21 54 24 9 8
-17 115 -32 134 -56 72 -68 80 -116 88 -27 4 -76 12 -109 18 -94 17 -286 14
-313 -5z"/>
<path d="M3810 6570 c0 -5 11 -12 24 -16 14 -3 27 -12 30 -20 6 -16 26 -19 26
-4 0 19 -35 50 -57 50 -13 0 -23 -4 -23 -10z"/>
<path d="M4765 6545 c-22 -8 -42 -15 -44 -15 -2 0 1 -6 7 -12 5 -8 6 -22 1
-33 -23 -59 -2 -59 53 1 73 78 69 90 -17 59z"/>
<path d="M4878 6453 c-33 -9 -58 -103 -26 -103 5 0 7 8 4 18 -7 20 23 62 43
62 6 0 11 7 11 15 0 15 -3 16 -32 8z"/>
<path d="M4815 5480 c-3 -5 -1 -18 4 -27 9 -16 10 -14 11 10 0 28 -5 34 -15
17z"/>
<path d="M4531 5374 c-12 -15 -21 -30 -21 -34 0 -4 -25 -28 -56 -54 -38 -31
-63 -45 -75 -41 -11 3 -27 7 -36 10 -10 2 -25 0 -33 -5 -13 -8 -12 -11 5 -25
15 -11 43 -14 115 -13 52 1 109 -2 127 -6 20 -4 34 -3 38 4 8 13 66 3 76 -12
10 -15 69 7 102 37 36 34 35 55 -2 55 -20 0 -40 11 -65 36 -41 41 -100 74
-132 74 -13 0 -32 -12 -43 -26z"/>
<path d="M4063 5373 c-12 -2 -33 -20 -48 -39 -14 -19 -35 -34 -46 -34 -41 0
-15 -36 33 -45 30 -6 43 -3 69 16 25 17 44 22 85 21 42 -1 54 2 54 13 0 18
-20 57 -35 67 -10 8 -74 8 -112 1z"/>
<path d="M2732 4890 c0 -14 2 -19 5 -12 2 6 2 18 0 25 -3 6 -5 1 -5 -13z"/>
<path d="M3955 4791 c-22 -10 -47 -22 -55 -25 -8 -3 -29 -15 -46 -25 -17 -10
-50 -22 -74 -26 -24 -4 -52 -12 -62 -19 -21 -13 -24 -41 -5 -53 25 -16 82 -32
87 -24 5 9 20 11 185 31 70 8 112 8 140 1 66 -17 146 -22 315 -22 139 0 167
-3 206 -21 25 -11 55 -17 67 -14 15 4 31 -5 59 -34 39 -42 62 -50 75 -26 9 15
72 45 117 55 38 8 42 21 16 54 -14 17 -46 34 -103 52 -45 15 -92 33 -104 41
-12 8 -27 14 -33 14 -6 0 -29 8 -53 19 -84 36 -91 38 -157 29 -36 -5 -75 -9
-87 -9 -13 -1 -23 -5 -23 -9 0 -9 -133 -25 -182 -22 -21 2 -63 13 -95 26 -76
29 -137 32 -188 7z"/>
<path d="M2851 4594 c0 -11 3 -14 6 -6 3 7 2 16 -1 19 -3 4 -6 -2 -5 -13z"/>
<path d="M2860 4563 c1 -15 30 -47 37 -40 3 4 -3 16 -15 27 -12 12 -22 17 -22
13z"/>
<path d="M2904 4484 c3 -8 6 -18 6 -20 0 -2 5 -4 10 -4 16 0 11 27 -6 34 -12
5 -15 2 -10 -10z"/>
<path d="M4765 4450 c-3 -6 -10 -8 -15 -5 -4 3 -10 -1 -13 -9 -3 -8 -34 -28
-69 -46 -35 -17 -87 -45 -117 -62 -36 -20 -56 -27 -59 -20 -4 13 -35 16 -46 5
-12 -12 -237 -3 -296 12 -67 17 -115 41 -169 84 -42 34 -86 39 -86 11 0 -8 6
-14 13 -13 6 2 12 -2 12 -7 0 -6 -7 -10 -16 -10 -13 0 -15 -7 -10 -31 6 -32
53 -89 72 -89 6 0 17 -7 24 -15 7 -8 26 -15 42 -15 17 0 27 -4 23 -10 -4 -6 7
-10 27 -10 18 0 51 -5 73 -10 22 -6 149 -12 283 -15 134 -2 247 -7 252 -10 5
-3 13 2 18 11 5 9 31 24 58 33 36 12 53 24 63 46 14 29 16 105 3 115 -4 3 -14
18 -22 34 -17 32 -35 43 -45 26z"/>
<path d="M2982 3940 c0 -19 2 -27 5 -17 2 9 2 25 0 35 -3 9 -5 1 -5 -18z"/>
<path d="M2960 3866 c0 -7 -21 -27 -47 -44 -27 -18 -66 -45 -88 -61 -22 -17
-51 -33 -65 -36 -14 -3 -51 -21 -82 -40 -81 -48 -116 -55 -239 -48 -87 5 -117
3 -151 -10 -75 -29 -241 -67 -290 -67 -68 0 -183 -26 -240 -55 -28 -14 -87
-36 -132 -49 -97 -29 -305 -101 -313 -110 -4 -3 -12 -6 -19 -6 -7 0 -46 -15
-86 -34 -41 -19 -94 -40 -119 -46 -112 -30 -225 -74 -237 -92 -9 -12 -24 -18
-41 -17 -14 1 -41 -1 -59 -5 -34 -8 -36 -13 -17 -58 10 -24 -20 -35 -43 -16
-51 43 -94 41 -198 -6 -33 -15 -78 -29 -101 -31 -23 -2 -75 -12 -115 -23 -40
-11 -119 -28 -175 -38 l-103 -19 0 -1477 0 -1478 524 0 c339 0 527 4 531 10 3
6 19 10 35 10 19 0 33 7 40 21 15 27 43 21 50 -11 l6 -25 1257 -3 1257 -2 -7
32 c-3 18 -12 48 -20 67 -7 19 -23 71 -34 115 -19 77 -69 243 -105 351 -9 28
-30 67 -46 88 -25 32 -29 44 -23 75 5 30 -3 62 -33 149 -22 60 -43 130 -47
154 -4 24 -10 49 -14 54 -9 12 -26 70 -45 155 -38 169 -79 339 -91 380 -7 25
-19 72 -25 105 -7 33 -19 68 -28 78 -21 23 -60 21 -81 -5 -14 -16 -24 -19 -44
-14 -24 6 -27 11 -27 51 0 24 -5 56 -11 72 -9 23 -7 30 9 43 11 9 23 26 26 38
7 21 9 21 32 6 31 -21 31 -44 -1 -44 -20 0 -25 -5 -25 -23 0 -13 9 -32 20 -42
11 -10 20 -25 20 -33 0 -10 7 -12 28 -7 40 10 45 18 32 65 -18 66 -17 150 1
195 42 101 52 159 40 231 -15 85 -30 134 -42 134 -5 0 -9 7 -9 15 0 8 -9 19
-20 25 -10 6 -38 42 -60 80 -22 38 -44 72 -49 75 -5 3 -12 18 -16 34 -3 16
-15 37 -26 47 -10 9 -19 20 -19 25 0 4 -18 37 -40 73 -67 110 -95 206 -91 319
1 70 27 140 42 117 8 -13 11 -12 22 5 17 28 38 111 44 173 3 28 9 52 14 52 4
0 6 7 3 15 -3 8 1 36 9 62 18 59 23 196 7 173 -9 -11 -10 2 -7 53 3 37 3 67 1
67 -2 0 -4 -6 -4 -14z m-216 -311 c-3 -7 -12 -16 -20 -19 -8 -3 -14 -15 -14
-26 0 -12 -10 -25 -25 -32 -25 -11 -49 -3 -29 10 11 7 34 45 34 56 0 2 -12 6
-27 8 -29 4 -26 6 32 25 33 11 57 0 49 -22z m-694 -116 c0 -5 -7 -9 -15 -9
-15 0 -20 12 -9 23 8 8 24 -1 24 -14z m-527 -331 c-3 -18 -13 -28 -30 -31 -28
-5 -42 16 -23 38 9 10 44 23 57 20 1 0 -1 -12 -4 -27z m159 -5 c21 -19 24 -35
6 -32 -37 4 -56 -3 -61 -22 -5 -19 -11 -21 -39 -15 -18 3 -39 14 -46 24 -12
15 -9 18 30 23 23 3 47 13 52 22 14 22 34 22 58 0z m1208 -339 c14 -36 13 -37
-20 -56 -38 -22 -40 -58 -4 -92 l27 -24 -23 -12 c-26 -14 -23 -17 -45 44 -10
26 -25 54 -32 62 -11 11 -11 19 2 51 18 42 30 53 63 53 15 0 26 -8 32 -26z
m90 -137 c0 -36 -58 -75 -74 -49 -6 10 14 36 39 50 26 15 35 15 35 -1z m-2658
-82 c10 -22 16 -24 43 -19 22 4 35 1 44 -10 8 -9 29 -16 48 -16 l34 0 -7 -56
c-8 -65 -1 -74 62 -74 55 0 90 27 81 62 -4 16 -18 30 -34 37 -16 5 -37 17 -47
25 -19 15 -19 16 -1 36 13 14 29 20 49 18 25 -2 33 -9 42 -36 5 -18 20 -39 32
-48 23 -16 52 -74 52 -104 0 -23 -42 -50 -78 -50 -20 0 -35 -9 -50 -30 -28
-37 -41 -38 -73 -4 -17 18 -31 24 -48 21 -15 -3 -35 3 -52 15 -21 16 -35 19
-61 14 -47 -10 -77 -11 -122 -3 -52 10 -69 25 -61 54 5 23 4 23 -50 17 -59 -7
-62 -4 -45 40 16 42 47 66 85 66 35 0 35 0 22 -27 -22 -45 -12 -63 36 -63 44
0 87 30 87 60 0 13 -12 19 -51 24 -46 6 -50 9 -43 29 11 36 25 47 60 47 27 0
37 -5 46 -25z m1808 -645 c25 0 70 -75 70 -118 1 -43 16 -67 54 -81 14 -6 29
-19 32 -28 3 -10 19 -45 35 -78 22 -46 29 -76 31 -132 3 -111 -22 -127 -107
-68 -28 19 -60 39 -72 44 -18 8 -23 19 -23 46 0 41 9 44 38 10 26 -30 51 -32
83 -6 21 17 22 21 9 50 -30 74 -78 102 -114 66 -8 -8 -17 -15 -20 -15 -13 0
-5 50 11 79 14 23 15 33 6 42 -17 17 -43 3 -43 -22 0 -18 -2 -19 -15 -9 -20
17 -19 39 5 75 22 33 25 70 10 110 -8 21 -14 24 -35 19 -21 -5 -25 -3 -25 17
0 12 8 31 18 42 17 19 17 18 26 -12 5 -19 15 -31 26 -31z m-1362 -57 c11 -33
19 -42 43 -47 25 -5 29 -10 29 -38 -1 -28 -2 -31 -13 -17 -18 24 -56 41 -76
34 -29 -9 -33 -45 -11 -89 11 -22 17 -42 14 -45 -7 -8 -34 29 -34 46 0 7 -15
16 -32 21 -26 6 -34 14 -36 36 -4 34 22 76 48 76 13 0 20 7 20 19 0 30 11 52
24 48 6 -2 17 -22 24 -44z m1310 -66 c4 -35 -13 -57 -38 -50 -22 6 -26 33 -9
64 15 28 43 20 47 -14z m-748 -42 c33 -40 -32 -71 -76 -36 -15 12 -35 21 -46
21 -11 0 -16 5 -13 10 4 6 22 9 40 8 19 -1 37 1 41 5 12 12 41 8 54 -8z m-436
-51 c22 -21 20 -60 -3 -86 -24 -25 -58 -18 -45 10 9 21 9 59 -1 91 -7 21 -6
22 13 12 11 -6 28 -18 36 -27z m-88 -69 c-22 -17 -46 -20 -46 -6 0 11 18 19
45 20 20 0 20 0 1 -14z m396 -2 c15 -13 23 -14 44 -5 32 15 34 15 34 -3 0 -8
-4 -15 -10 -15 -5 0 -10 -8 -10 -17 0 -10 -5 -25 -10 -33 -9 -13 -13 -12 -29
8 -11 12 -26 22 -34 22 -18 0 -26 18 -19 43 5 21 11 21 34 0z m-996 -230 c15
-36 10 -48 -23 -51 -36 -4 -43 11 -23 49 13 24 35 25 46 2z m2839 -43 c7 -21
11 -23 60 -24 l30 -1 0 -80 c1 -67 -3 -84 -20 -106 -17 -21 -25 -24 -44 -16
-18 9 -26 6 -47 -16 -36 -39 -74 -15 -74 47 0 19 -7 27 -34 36 -39 12 -44 21
-52 93 -5 46 -3 54 16 65 17 10 28 10 56 0 30 -10 36 -10 51 5 23 23 50 21 58
-3z m-2915 -40 c0 -5 -4 -10 -10 -10 -5 0 -10 5 -10 10 0 6 5 10 10 10 6 0 10
-4 10 -10z m244 -400 c14 0 35 5 46 12 26 16 36 4 24 -30 -8 -24 -15 -27 -58
-30 -32 -1 -53 -8 -61 -19 -11 -15 -15 -15 -29 -4 -22 19 -20 57 6 83 19 19
22 20 33 5 7 -10 24 -17 39 -17z m658 -66 c11 -24 10 -29 -17 -50 -59 -46 -65
-54 -65 -84 0 -24 -6 -33 -26 -40 -14 -6 -27 -10 -30 -10 -19 0 21 95 50 119
9 8 16 26 16 42 0 49 53 66 72 23z m-576 -41 c-10 -10 -19 5 -10 18 6 11 8 11
12 0 2 -7 1 -15 -2 -18z m650 -58 c0 -35 -4 -55 -11 -55 -19 0 -42 -32 -50
-68 -9 -43 -33 -52 -57 -22 -28 34 -20 74 14 78 31 4 58 35 58 68 0 34 11 54
29 54 13 0 16 -11 17 -55z m1527 13 c3 -12 2 -29 -3 -37 -8 -13 -9 -12 -10 6
0 12 -4 25 -10 28 -15 9 -12 25 4 25 7 0 16 -10 19 -22z m-2206 -34 c26 -7 20
-34 -8 -34 -10 0 -19 2 -19 4 0 2 -3 11 -6 20 -7 17 -1 19 33 10z m2218 -54
c3 -5 1 -10 -4 -10 -6 0 -11 5 -11 10 0 6 2 10 4 10 3 0 8 -4 11 -10z m5 -40
c0 -5 -2 -10 -4 -10 -3 0 -8 5 -11 10 -3 6 -1 10 4 10 6 0 11 -4 11 -10z
m-376 -75 c4 -10 -1 -15 -14 -15 -10 0 -23 -7 -28 -16 -5 -9 -14 -14 -21 -10
-12 8 -15 39 -4 49 12 13 61 7 67 -8z m104 6 c23 -14 10 -53 -21 -64 -23 -7
-31 -5 -47 15 -25 30 -25 37 3 48 28 11 49 12 65 1z m-148 -76 c0 -22 21 -63
36 -69 7 -3 27 -1 44 4 30 9 32 8 26 -13 -3 -12 -6 -32 -6 -44 0 -30 -24 -29
-48 1 -12 16 -31 26 -53 28 -39 4 -49 30 -29 79 13 31 30 39 30 14z"/>
<path d="M382 2458 c-14 -14 -16 -44 -4 -52 12 -7 52 22 52 38 0 8 -7 17 -16
20 -20 8 -18 8 -32 -6z"/>
<path d="M2957 1272 c-26 -29 -21 -50 24 -94 39 -39 41 -39 60 -22 36 33 18
124 -26 124 -7 0 -20 2 -27 5 -8 3 -22 -3 -31 -13z"/>
<path d="M7543 2722 c-18 -12 12 -76 33 -68 9 3 18 6 20 6 10 0 2 27 -15 48
-21 25 -21 25 -38 14z"/>
</g>
</svg>
